<?xml version="1.0" encoding="UTF-8" standalone="no"?>
<svg
   xmlns:dc="http://purl.org/dc/elements/1.1/"
   xmlns:cc="http://creativecommons.org/ns#"
   xmlns:rdf="http://www.w3.org/1999/02/22-rdf-syntax-ns#"
   xmlns:svg="http://www.w3.org/2000/svg"
   xmlns="http://www.w3.org/2000/svg"
   xmlns:sodipodi="http://sodipodi.sourceforge.net/DTD/sodipodi-0.dtd"
   xmlns:inkscape="http://www.inkscape.org/namespaces/inkscape"
   width="1080"
   height="1440"
   viewBox="0 0 285.75 381"
   version="1.1"
   id="svg8"
   inkscape:export-filename="/home/jura/git/album-cover-generator/img/template.png"
   inkscape:export-xdpi="96"
   inkscape:export-ydpi="96"
   inkscape:version="1.0.2 (e86c870879, 2021-01-15)"
   sodipodi:docname="template.svg">
  <defs
     id="defs2">
    <rect
       x="243.94514"
       y="312.28434"
       width="30.088322"
       height="11.632352"
       id="rect1673" />
    <filter
       inkscape:collect="always"
       style="color-interpolation-filters:sRGB"
       id="filter2230"
       x="-0.090005552"
       width="1.1800111"
       y="-0.090005552"
       height="1.1800111">
      <feGaussianBlur
         inkscape:collect="always"
         stdDeviation="5.8736442"
         id="feGaussianBlur2232" />
    </filter>
  </defs>
  <sodipodi:namedview
     id="base"
     pagecolor="#ffffff"
     bordercolor="#666666"
     borderopacity="1.0"
     inkscape:pageopacity="0.0"
     inkscape:pageshadow="2"
     inkscape:zoom="0.39933414"
     inkscape:cx="428.48102"
     inkscape:cy="861.18826"
     inkscape:document-units="mm"
     inkscape:current-layer="layer1"
     inkscape:document-rotation="0"
     showgrid="false"
     units="px"
     inkscape:snap-page="true"
     inkscape:lockguides="true"
     width="1080px"
     inkscape:snap-bbox="true"
     inkscape:bbox-paths="true"
     inkscape:bbox-nodes="true"
     inkscape:snap-bbox-edge-midpoints="true"
     inkscape:snap-bbox-midpoints="true"
     inkscape:window-width="1920"
     inkscape:window-height="1003"
     inkscape:window-x="0"
     inkscape:window-y="40"
     inkscape:window-maximized="1" />
  <metadata
     id="metadata5">
    <rdf:RDF>
      <cc:Work
         rdf:about="">
        <dc:format>image/svg+xml</dc:format>
        <dc:type
           rdf:resource="http://purl.org/dc/dcmitype/StillImage" />
        <dc:title />
      </cc:Work>
    </rdf:RDF>
  </metadata>
  <g
     inkscape:label="Layer 1"
     inkscape:groupmode="layer"
     id="layer1">
    <rect
       style="fill:#000000;fill-opacity:0.178548;stroke:none;stroke-width:3;stroke-linecap:round;stroke-linejoin:round;stroke-miterlimit:4;stroke-dasharray:none;stroke-dashoffset:0;stroke-opacity:0.172983;filter:url(#filter2230)"
       id="rect2100"
       width="156.62085"
       height="156.62085"
       x="64.564575"
       y="53.981236"
       ry="1.1452436"
       transform="matrix(1.0874862,0,0,1.0874862,-12.499594,-7.8695305)" />
    <path
       id="path2033"
       style="fill:#ffffff;fill-opacity:0.81100869;stroke:none;stroke-width:1.87102;stroke-linecap:round;stroke-linejoin:round;stroke-miterlimit:4;stroke-dasharray:none;stroke-dashoffset:0;stroke-opacity:0.172983"
       d="M 142.875,311.57406 A 17.500133,17.500133 0 0 0 125.37503,329.07443 17.500133,17.500133 0 0 0 142.875,346.5744 17.500133,17.500133 0 0 0 160.37497,329.07443 17.500133,17.500133 0 0 0 142.875,311.57406 Z m -3.78447,11.96872 c 0.149,0 0.29457,0.0338 0.4321,0.10036 l 8.1e-4,8.3e-4 c 1.51156,0.73688 3.65529,1.97206 5.54676,3.06185 0.98804,0.5694 1.92137,1.10649 2.63056,1.49542 0.33536,0.18366 0.53574,0.51037 0.53574,0.87319 0,0.36281 -0.20038,0.68911 -0.53574,0.87277 -0.71077,0.38939 -1.64639,0.92792 -2.63668,1.4987 -1.88946,1.08843 -4.03087,2.3222 -5.54064,3.05817 -0.13753,0.067 -0.28325,0.10161 -0.43291,0.10161 -0.54873,0 -0.99478,-0.44356 -0.99478,-0.98867 l 4.1e-4,-4.5434 -4.1e-4,-4.5426 c 0,-0.54465 0.44608,-0.98823 0.99478,-0.98823 z" />
    <path
       id="path1652"
       style="color:#000000;font-style:normal;font-variant:normal;font-weight:normal;font-stretch:normal;font-size:medium;line-height:normal;font-family:sans-serif;font-variant-ligatures:normal;font-variant-position:normal;font-variant-caps:normal;font-variant-numeric:normal;font-variant-alternates:normal;font-variant-east-asian:normal;font-feature-settings:normal;font-variation-settings:normal;text-indent:0;text-align:start;text-decoration:none;text-decoration-line:none;text-decoration-style:solid;text-decoration-color:#000000;letter-spacing:normal;word-spacing:normal;text-transform:none;writing-mode:lr-tb;direction:ltr;text-orientation:mixed;dominant-baseline:auto;baseline-shift:baseline;text-anchor:start;white-space:normal;shape-padding:0;shape-margin:0;inline-size:0;clip-rule:nonzero;display:inline;overflow:visible;visibility:visible;opacity:1;isolation:auto;mix-blend-mode:normal;color-interpolation:sRGB;color-interpolation-filters:linearRGB;solid-color:#000000;solid-opacity:1;vector-effect:none;fill:#ffffff;fill-opacity:0.172983;fill-rule:nonzero;stroke:none;stroke-width:3.77953;stroke-linecap:round;stroke-linejoin:round;stroke-miterlimit:4;stroke-dasharray:none;stroke-dashoffset:0;stroke-opacity:1;color-rendering:auto;image-rendering:auto;shape-rendering:auto;text-rendering:auto;enable-background:accumulate;stop-color:#000000;stop-opacity:1"
       d="M 646.82227 1042.5 C 647.73168 1044.1888 648.24812 1046.1194 648.24805 1048.1719 C 648.24813 1050.2222 647.73183 1052.1504 646.82422 1053.8379 L 921.79883 1053.8379 A 5.6692913 5.6692913 0 0 0 927.46875 1048.1699 A 5.6692913 5.6692913 0 0 0 921.79883 1042.5 L 646.82227 1042.5 z "
       transform="scale(0.26458333)" />
    <rect
       style="fill:#4a4a4a;fill-opacity:1;stroke:none;stroke-width:2;stroke-linecap:square;stroke-miterlimit:4;stroke-dasharray:2, 2;stroke-dashoffset:0"
       id="rect1594"
       width="285.75"
       height="508"
       x="323.82916"
       y="-84.564766"
       ry="1.5269923" />
    <rect
       style="fill:#000000;fill-opacity:1;stroke:none;stroke-width:1.89176;stroke-linecap:square;stroke-miterlimit:4;stroke-dasharray:1.89176, 1.89176000000000011;stroke-dashoffset:0"
       id="rect1592"
       width="153.47823"
       height="153.47823"
       x="66.135895"
       y="55.552559"
       ry="1.4443554" />
    <text
       xml:space="preserve"
       style="font-style:normal;font-weight:normal;font-size:10.5833px;line-height:1.25;font-family:sans-serif;fill:#ffffff;fill-opacity:1;stroke:none;stroke-width:0.264583"
       x="345.12088"
       y="-52.969643"
       id="text841"><tspan
         sodipodi:role="line"
         id="tspan839"
         x="345.12088"
         y="-52.969643"
         style="fill:#ffffff;fill-opacity:1;stroke-width:0.264583">Album cover generator</tspan></text>
    <text
       xml:space="preserve"
       style="font-style:normal;font-weight:normal;font-size:14.6095px;line-height:1.25;font-family:sans-serif;fill:#f9f9f9;fill-opacity:1;stroke:none;stroke-width:0.365239"
       x="372.1969"
       y="204.4626"
       id="text1606"><tspan
         sodipodi:role="line"
         id="tspan1604"
         x="372.1969"
         y="204.4626"
         style="fill:#f9f9f9;fill-opacity:1;stroke-width:0.365239">Label neco</tspan></text>
    <text
       xml:space="preserve"
       style="font-style:normal;font-weight:normal;font-size:10.5843px;line-height:1.25;font-family:sans-serif;fill:#f9f9f9;fill-opacity:1;stroke:none;stroke-width:0.264609"
       x="374.00629"
       y="220.83766"
       id="text1606-3"><tspan
         sodipodi:role="line"
         id="tspan1604-6"
         x="374.00629"
         y="220.83766"
         style="fill:#f9f9f9;fill-opacity:1;stroke-width:0.264609">Artist- album</tspan></text>
    <path
       id="path1654"
       style="fill:#ffffff;fill-opacity:0.48089564;stroke:none;stroke-width:1.98948;stroke-linecap:round;stroke-linejoin:round;stroke-miterlimit:4;stroke-dasharray:none;stroke-dashoffset:0;stroke-opacity:0.376471"
       d="m 168.34528,274.15846 a 3.1702277,3.1702277 0 0 0 -2.7926,1.66965 H 41.857392 a 1.5,1.5 0 0 0 -1.500166,1.50017 1.5,1.5 0 0 0 1.500166,1.49965 H 165.55217 a 3.1702277,3.1702277 0 0 0 2.79311,1.67122 3.1702277,3.1702277 0 0 0 3.17035,-3.17035 3.1702277,3.1702277 0 0 0 -3.17035,-3.17034 z" />
    <text
       xml:space="preserve"
       style="font-style:normal;font-weight:normal;font-size:10.5833px;line-height:1.25;font-family:sans-serif;fill:#ffffff;fill-opacity:0.172549;stroke:none;stroke-width:0.264583"
       x="39.171127"
       y="293.65738"
       id="text1665"><tspan
         sodipodi:role="line"
         id="tspan1663"
         x="39.171127"
         y="293.65738"
         style="font-style:normal;font-variant:normal;font-weight:600;font-stretch:normal;font-family:Nunito;-inkscape-font-specification:'Nunito Semi-Bold';fill:#ffffff;fill-opacity:0.172549;stroke-width:0.264583">7.27</tspan></text>
    <text
       xml:space="preserve"
       style="font-style:normal;font-weight:normal;font-size:10.5833px;line-height:1.25;font-family:sans-serif;fill:#ffffff;fill-opacity:0.172549;stroke:none;stroke-width:0.264583"
       x="210.64786"
       y="293.65738"
       id="text1669"><tspan
         sodipodi:role="line"
         id="tspan1667"
         x="210.64786"
         y="293.65738"
         style="font-style:normal;font-variant:normal;font-weight:600;font-stretch:normal;font-family:Nunito;-inkscape-font-specification:'Nunito Semi-Bold';fill:#ffffff;fill-opacity:0.172549;stroke-width:0.264583">- 3.8 %</tspan></text>
    <text
       xml:space="preserve"
       id="text1671"
       style="fill:black;fill-opacity:1;line-height:1.25;stroke:none;font-family:sans-serif;font-style:normal;font-weight:normal;font-size:10.58333333px;white-space:pre;shape-inside:url(#rect1673);" />
    <path
       id="circle2035"
       style="fill:#ffffff;fill-opacity:0.81176472;stroke:none;stroke-width:1.42655;stroke-linecap:round;stroke-linejoin:round;stroke-miterlimit:4;stroke-dasharray:none;stroke-dashoffset:0;stroke-opacity:0.172983"
       d="m 186.76019,315.73147 a 13.342923,13.342923 0 0 0 -13.30257,13.34296 13.342923,13.342923 0 0 0 13.34296,13.34256 13.342923,13.342923 0 0 0 13.34256,-13.34256 13.342923,13.342923 0 0 0 -13.34256,-13.34296 13.342923,13.342923 0 0 0 -0.0404,0 z m -5.5745,7.81294 c 0.17712,-0.0107 0.35677,0.039 0.50596,0.14812 l 5.03385,3.65431 v -1.3155 -1.70026 c 0,-0.29759 0.16713,-0.56575 0.43211,-0.70139 0.26079,-0.1346 0.57735,-0.11173 0.81605,0.0629 l 6.53297,4.74374 c 0.20084,0.14826 0.32193,0.38374 0.32193,0.63611 0,0.25238 -0.12004,0.48872 -0.32193,0.6349 l -6.53297,4.74456 c -0.1346,0.0988 -0.29784,0.15261 -0.46188,0.15261 -0.11988,0 -0.24165,-0.0316 -0.35417,-0.0873 -0.26498,-0.13564 -0.43211,-0.40809 -0.43211,-0.69935 v -1.70231 -1.31875 l -5.03385,3.65636 c -0.13565,0.0988 -0.29745,0.15261 -0.46148,0.15261 -0.11883,0 -0.24085,-0.0316 -0.35336,-0.0873 -0.26604,-0.13564 -0.43332,-0.40808 -0.43332,-0.69936 v -1.70229 -6.08454 -1.70108 c 0,-0.29653 0.16728,-0.56575 0.43332,-0.7014 0.0974,-0.0505 0.20261,-0.0789 0.30888,-0.0853 z" />
    <path
       id="circle2037"
       style="fill:#ffffff;fill-opacity:0.81176472;stroke:none;stroke-width:1.42655;stroke-linecap:round;stroke-linejoin:round;stroke-miterlimit:4;stroke-dasharray:none;stroke-dashoffset:0;stroke-opacity:0.172983"
       d="m 98.909427,315.73147 a 13.342923,13.342923 0 0 0 -13.302572,13.34296 13.342923,13.342923 0 0 0 13.342558,13.34256 13.342923,13.342923 0 0 0 13.342967,-13.34256 13.342923,13.342923 0 0 0 -13.342967,-13.34296 13.342923,13.342923 0 0 0 -0.03999,0 z m -0.626733,7.81294 c 0.106425,0.006 0.2119,0.0348 0.309694,0.0853 0.264989,0.13564 0.432103,0.4038 0.432103,0.70139 v 1.70026 1.3155 l 5.033859,-3.65431 c 0.2387,-0.17457 0.5551,-0.19744 0.81483,-0.0628 0.26604,0.13564 0.43333,0.40487 0.43333,0.70139 v 1.70109 6.08453 1.70229 c 0,0.29129 -0.16729,0.56372 -0.43333,0.69937 -0.11251,0.0557 -0.23453,0.0873 -0.35335,0.0873 -0.16404,0 -0.32583,-0.0538 -0.46148,-0.15262 l -5.033859,-3.65636 v 1.31876 1.7023 c 0,0.29127 -0.167114,0.56371 -0.432103,0.69936 -0.112515,0.0558 -0.234294,0.0873 -0.354169,0.0873 -0.164041,0 -0.327292,-0.0538 -0.461889,-0.15261 l -6.532958,-4.74456 c -0.201898,-0.14617 -0.321936,-0.38251 -0.321936,-0.6349 0,-0.25236 0.121091,-0.48785 0.321936,-0.63611 l 6.532958,-4.74374 c 0.149187,-0.1091 0.328988,-0.15886 0.506364,-0.14812 z" />
    <text
       xml:space="preserve"
       style="font-style:normal;font-weight:normal;font-size:10.5833px;line-height:1.25;font-family:sans-serif;fill:#ffffff;fill-opacity:0.811765;stroke:none;stroke-width:0.264583"
       x="16.536753"
       y="24.908714"
       id="text1665-5"><tspan
         sodipodi:role="line"
         id="tspan1663-3"
         x="16.536753"
         y="24.908714"
         style="font-style:normal;font-variant:normal;font-weight:600;font-stretch:normal;font-family:Nunito;-inkscape-font-specification:'Nunito Semi-Bold';fill:#ffffff;fill-opacity:0.811765;stroke-width:0.264583">ČSSD album cover generator</tspan></text>
  </g>
</svg>
